<svg height="24" viewBox="0 0 117 24" width="117" xmlns="http://www.w3.org/2000/svg"><path d="m20.4271806.25165047 8.5387011 7.17879093c.2437689.20494524.3846033.50778675.3846033.82702693v9.24268097c0 .2225668-.068567.4396846-.1962989.6215813-.0150509.0214332-.0378765.0527033-.0685958.0931487-.0462021.0608301-.1005243.1294931-.1630868.2053247-.1724094.2089768-.3791469.4385364-.6211782.6833229-.6796637.687401-1.5114596 1.370342-2.5027096 2.0050311-.3893733.2493126-.7927253.4847473-1.2101457.7053433 2.0949621-.0416147 4.0822504-.4110317 5.905084-1.0051394.6245035-.2035414 1.1856005-.4198583 1.6761967-.6360181-.0926114-.3184659-.140354-.6557828-.140354-1.0042998 0-2.0546846 1.6593898-3.7200862 3.7063145-3.7200862 2.0467485 0 3.7063144 1.6654711 3.7063144 3.7200862 0 2.054615-1.6595659 3.7200861-3.7063144 3.7200861-.9127927 0-1.7485213-.3311765-2.3944018-.8803671l-.1734367.079972c-.5866624.2645451-1.2597252.5276811-2.0110004.7725407-2.2793949.7429125-4.7881857 1.1673051-7.4475617 1.1103464-1.4136824-.0303176-2.7424715-.1798469-3.9876237-.435109-1.2438578.2552146-2.5728524.404787-3.986771.4351096-2.6593463.0569581-5.1681371-.3674345-7.44753204-1.110347-.75127512-.2448596-1.42433792-.5079956-2.0110004-.7725407l-.1757396-.079995c-.64589518.5491998-1.48161534.8803901-2.39432942.8803901-2.04692467 0-3.70631444-1.6654016-3.70631444-3.7200861 0-2.0546846 1.65938977-3.7200862 3.70631444-3.7200862 2.04674853 0 3.70631444 1.6654711 3.70631444 3.7200862 0 .348141-.04764794.6851094-.1367538 1.0046958l-.11930951-.0529654c.51796426.2335668 1.11899776.4685427 1.79413658.6885875 1.82283365.5941077 3.81012195.9635247 5.90536545 1.005935-.4177018-.2213916-.8210538-.4568263-1.2104271-.7061389-.99125-.6346891-1.8230459-1.3176301-2.5027096-2.0050311-.2420313-.2447865-.4487688-.4743461-.6211782-.6833229-.0625625-.0758316-.1168847-.1444946-.1630868-.2053247-.0307193-.0404454-.053545-.0717155-.0685958-.0931487l-.196299-.2795397v-10.09101049l8.8018822-7.34251013c.0059622-.00754557.0120409-.01503425.0182363-.02246377.3808789-.45675436 1.0584024-.51699715 1.513291-.13455604zm49.4435663 9.60404682c1.8666083 0 3.4305233.63359991 4.7169696 1.92614391 1.2864462 1.2925439 1.9422815 2.8638718 1.9422815 4.7393277s-.6558353 3.4467838-1.9422815 4.7393278c-1.2864463 1.2925439-2.8503613 1.9261438-4.7169696 1.9261438-1.8413839 0-3.4305234-.6335999-4.7169696-1.9261438-1.2864463-1.292544-1.9422816-2.8638719-1.9422816-4.7393278s.6558353-3.4467838 1.9422816-4.7393277c1.2864462-1.292544 2.8755857-1.92614391 4.7169696-1.92614391zm32.8422161-4.73932774v17.74079905h-2.7242392v-1.8247679c-1.0342019 1.4446079-2.4972192 2.1542398-4.4142764 2.1542398-1.7404861 0-3.2035034-.6335999-4.4395007-1.9261438-1.2359974-1.292544-1.8413839-2.8892159-1.8413839-4.7393278 0-1.8754559.6053865-3.4467838 1.8413839-4.7393277 1.2359973-1.292544 2.6990146-1.92614391 4.4395007-1.92614391 1.9170572 0 3.3800745.70963191 4.4142764 2.12889591v-6.86822365zm5.398029 5.06879975v7.5018236c0 1.9007998 1.084651 2.9399038 2.825137 2.9399038 1.917057 0 3.203504-1.1911679 3.203504-3.6495358v-6.7921916h2.724239v12.6719993h-2.724239v-1.6220159c-.832407 1.2925439-2.118853 1.9514878-3.909788 1.9514878-2.90081 0-4.843092-1.9768318-4.843092-5.2208637v-7.7806075zm-55.6198817-5.06879975v6.69081565c.8324064-1.292544 2.1188526-1.95148791 3.9097876-1.95148791 2.9008102 0 4.8430918 1.97683191 4.8430918 5.22086371v7.7806076h-2.7242392v-7.5018236c0-1.9007999-1.0846507-2.9399039-2.8251368-2.9399039-1.9170572 0-3.2035034 1.191168-3.2035034 3.6495358v6.7921917h-2.7242391v-17.74079905zm28.9828773-.76031996v18.50111901h-2.7242392v-18.50111901zm5.6250492 5.82911971v12.6719993h-2.7242391v-12.6719993zm-67.3460368-7.6861693-7.5107376 6.26475624v8.35889006c.1193456.1400466.2609957.2947225.4253607.4609586.571221.5777238 1.2802987 1.1599077 2.1331817 1.7060017 1.4164886.9069659 3.052185 1.6076515 4.921339 2.0392467 1.8697097-.4318467 3.5050732-1.1324436 4.9213076-2.0392467.852883-.546094 1.5619607-1.1282779 2.1331817-1.7060017.164365-.1662361.3060151-.320912.4253606-.4609586v-8.36150081zm15.9827112 15.1066612c-.860575 0-1.5578232.6997743-1.5578232 1.5627828s.6972482 1.5627828 1.5578232 1.5627828c.8604297 0 1.5578231-.699875 1.5578231-1.5627828 0-.8629079-.6973934-1.5627828-1.5578231-1.5627828zm-32.02939676 0c-.86057491 0-1.55782314.6997743-1.55782314 1.5627828s.69724823 1.5627828 1.55782314 1.5627828c.86042973 0 1.55782314-.699875 1.55782314-1.5627828 0-.8629079-.69739341-1.5627828-1.55782314-1.5627828zm92.29694846-5.1395321c-1.1350997 0-2.0936283.38016-2.8503613 1.165824-.7567331.7603199-1.1350997 1.7233919-1.1350997 2.8892158 0 1.165824.3783666 2.1288959 1.1350997 2.9145599.756733.7603199 1.7152616 1.1404799 2.8503613 1.1404799 1.1350996 0 2.0936282-.38016 2.8503612-1.1404799.7567331-.785664 1.1350997-1.7487359 1.1350997-2.9145599 0-1.1658239-.3783666-2.1288959-1.1350997-2.8892158-.756733-.785664-1.7152616-1.165824-2.8503612-1.165824zm-26.132516.050688c-1.1098752 0-2.0431794.38016-2.7999125 1.14048-.756733.7603199-1.1350996 1.7233919-1.1350996 2.8638718 0 1.14048.3783666 2.1035519 1.1350996 2.8638719.7567331.7603199 1.6900373 1.1404799 2.7999125 1.1404799s2.0431793-.38016 2.7999124-1.1404799c.7567331-.76032 1.1350996-1.7233919 1.1350996-2.8638719 0-1.1404799-.3783665-2.1035519-1.1350996-2.8638718-.7567331-.76032-1.6900372-1.14048-2.7999124-1.14048zm17.1021678-7.19769556c.6810597.68428796.6810597 1.7487359-.0252245 2.45836786-.6810598.68428796-1.7404861.68428796-2.4467703 0-.6810598-.70963196-.6810598-1.7740799 0-2.45836786.6810598-.70963196 1.790935-.70963196 2.4719948 0z" fill="#34c759" transform="translate(0 -.000026)"/></svg>